<svg width="202" height="64" viewBox="0 0 202 64" fill="none" xmlns="http://www.w3.org/2000/svg">
<path d="M201.291 19.9967C201.291 21.8234 200.945 23.3775 200.253 24.6589C199.566 25.9403 198.628 26.919 197.439 27.5952C196.256 28.2659 194.925 28.6012 193.448 28.6012C191.959 28.6012 190.623 28.2631 189.44 27.587C188.257 26.9109 187.322 25.932 186.635 24.6507C185.948 23.3693 185.604 21.8179 185.604 19.9967C185.604 18.1701 185.948 16.6162 186.635 15.3348C187.322 14.0534 188.257 13.0774 189.44 12.4067C190.623 11.7306 191.959 11.3925 193.448 11.3925C194.925 11.3925 196.256 11.7306 197.439 12.4067C198.628 13.0774 199.566 14.0534 200.253 15.3348C200.945 16.6162 201.291 18.1701 201.291 19.9967ZM197.701 19.9967C197.701 18.8135 197.524 17.8158 197.169 17.0033C196.82 16.1909 196.327 15.5747 195.689 15.1548C195.051 14.735 194.304 14.5251 193.448 14.5251C192.592 14.5251 191.845 14.735 191.207 15.1548C190.569 15.5747 190.072 16.1909 189.718 17.0033C189.369 17.8158 189.195 18.8135 189.195 19.9967C189.195 21.18 189.369 22.1779 189.718 22.9904C190.072 23.8028 190.569 24.419 191.207 24.8388C191.845 25.2587 192.592 25.4686 193.448 25.4686C194.304 25.4686 195.051 25.2587 195.689 24.8388C196.327 24.419 196.82 23.8028 197.169 22.9904C197.524 22.1779 197.701 21.18 197.701 19.9967Z" fill="#23B1F9"/>
<path d="M182.985 11.6213V28.372H179.443V11.6213H182.985Z" fill="#23B1F9"/>
<path d="M176.904 17.4859H173.321C173.256 17.0224 173.122 16.6107 172.92 16.2508C172.719 15.8855 172.46 15.5747 172.143 15.3184C171.827 15.0622 171.462 14.8659 171.047 14.7295C170.638 14.5932 170.194 14.5251 169.714 14.5251C168.847 14.5251 168.092 14.7404 167.449 15.1712C166.805 15.5965 166.306 16.218 165.952 17.0359C165.597 17.8484 165.42 18.8353 165.42 19.9967C165.42 21.1909 165.597 22.1943 165.952 23.0067C166.312 23.8192 166.813 24.4326 167.457 24.847C168.1 25.2614 168.844 25.4686 169.69 25.4686C170.164 25.4686 170.603 25.4059 171.006 25.2805C171.415 25.1551 171.778 24.9724 172.094 24.7325C172.411 24.4871 172.672 24.19 172.879 23.841C173.092 23.492 173.239 23.094 173.321 22.6469L176.904 22.6632C176.811 23.432 176.579 24.1736 176.208 24.8879C175.843 25.5968 175.35 26.232 174.728 26.7936C174.112 27.3498 173.376 27.7915 172.52 28.1186C171.669 28.4403 170.707 28.6012 169.632 28.6012C168.138 28.6012 166.802 28.2631 165.625 27.587C164.452 26.9109 163.525 25.932 162.844 24.6507C162.168 23.3693 161.83 21.8179 161.83 19.9967C161.83 18.1701 162.173 16.6162 162.86 15.3348C163.547 14.0534 164.48 13.0774 165.657 12.4067C166.835 11.7306 168.16 11.3925 169.632 11.3925C170.603 11.3925 171.503 11.5288 172.331 11.8014C173.166 12.0741 173.905 12.4721 174.548 12.9956C175.191 13.5136 175.715 14.1488 176.118 14.9013C176.527 15.6538 176.789 16.5153 176.904 17.4859Z" fill="#23B1F9"/>
<path d="M159.21 11.6213V28.372H155.669V11.6213H159.21Z" fill="#23B1F9"/>
<path d="M140.554 28.372V11.6213H147.162C148.427 11.6213 149.507 11.8476 150.401 12.3002C151.301 12.7473 151.985 13.3825 152.454 14.2059C152.929 15.0238 153.166 15.9862 153.166 17.0931C153.166 18.2054 152.926 19.1624 152.446 19.9639C151.966 20.76 151.271 21.3707 150.36 21.796C149.455 22.2213 148.359 22.434 147.072 22.434H142.648V19.5877H146.5C147.176 19.5877 147.738 19.495 148.185 19.3096C148.632 19.1242 148.965 18.8461 149.183 18.4753C149.406 18.1046 149.518 17.6438 149.518 17.0931C149.518 16.5369 149.406 16.068 149.183 15.6863C148.965 15.3046 148.629 15.0156 148.177 14.8193C147.729 14.6176 147.165 14.5167 146.484 14.5167H144.095V28.372H140.554ZM149.6 20.7491L153.763 28.372H149.853L145.78 20.7491H149.6Z" fill="#23B1F9"/>
<path d="M134.098 11.6213H137.64V22.4994C137.64 23.7208 137.348 24.7896 136.765 25.7056C136.187 26.6217 135.377 27.336 134.336 27.8485C133.294 28.3556 132.081 28.6092 130.696 28.6092C129.306 28.6092 128.09 28.3556 127.048 27.8485C126.007 27.336 125.197 26.6217 124.619 25.7056C124.041 24.7896 123.752 23.7208 123.752 22.4994V11.6213H127.293V22.1968C127.293 22.8348 127.433 23.4019 127.711 23.898C127.994 24.3942 128.392 24.7841 128.905 25.0677C129.417 25.3512 130.014 25.493 130.696 25.493C131.383 25.493 131.98 25.3512 132.487 25.0677C133 24.7841 133.395 24.3942 133.673 23.898C133.957 23.4019 134.098 22.8348 134.098 22.1968V11.6213Z" fill="#23B1F9"/>
<path d="M109.41 28.372H105.615L111.398 11.6213H115.961L121.736 28.372H117.941L113.745 15.4491H113.614L109.41 28.372ZM109.173 21.7879H118.137V24.5524H109.173V21.7879Z" fill="#23B1F9"/>
<path d="M85.448 11.6213H89.815L94.428 22.8757H94.624L99.237 11.6213H103.605V28.372H100.17V17.4693H100.031L95.696 28.2902H93.357L89.022 17.4284H88.883V28.372H85.448V11.6213Z" fill="#23B1F9"/>
<path d="M194.917 40.76C194.784 40.95 194.567 41.224 194.263 41.584C193.979 41.944 193.629 42.332 193.212 42.749C192.814 43.166 192.35 43.601 191.82 44.056C191.309 44.492 190.759 44.889 190.172 45.249C190.096 45.685 189.954 46.301 189.746 47.096C189.538 47.911 189.263 48.791 188.922 49.738C188.581 50.685 188.183 51.642 187.729 52.608C187.274 53.593 186.763 54.483 186.195 55.279C185.645 56.093 185.039 56.746 184.376 57.239C183.713 57.75 183.013 58.006 182.274 58.006C181.535 58.006 180.957 57.883 180.541 57.637C180.124 57.39 179.821 57.068 179.632 56.671C179.423 56.292 179.3 55.866 179.262 55.392C179.224 54.938 179.215 54.493 179.234 54.057C179.253 53.489 179.423 52.826 179.745 52.068C180.067 51.329 180.512 50.572 181.081 49.795C181.668 49.038 182.369 48.308 183.183 47.607C183.997 46.926 184.907 46.348 185.911 45.874C186.403 45.666 186.858 45.467 187.274 45.278C187.691 45.069 188.079 44.871 188.439 44.681C188.591 44.056 188.6 43.639 188.468 43.431C188.354 43.223 188.183 43.118 187.956 43.118C187.615 43.118 187.208 43.27 186.734 43.573C186.28 43.876 185.712 44.35 185.03 44.994C184.84 45.013 184.67 44.994 184.518 44.937C184.386 44.861 184.272 44.776 184.177 44.681C184.064 44.586 183.969 44.473 183.893 44.34C183.685 44.018 183.59 43.696 183.609 43.374C183.647 43.052 183.799 42.796 184.064 42.607C184.329 42.399 184.717 42.067 185.229 41.613C185.759 41.139 186.27 40.543 186.763 39.823C186.914 39.614 187.094 39.359 187.303 39.056C187.53 38.734 187.748 38.393 187.956 38.033C188.183 37.654 188.392 37.266 188.581 36.868C188.79 36.47 188.951 36.091 189.064 35.732C188.685 35.675 188.136 35.684 187.416 35.76C187.038 35.836 186.63 35.921 186.195 36.016C185.816 36.11 185.38 36.233 184.888 36.385C184.414 36.536 183.912 36.745 183.382 37.01C183.306 36.972 183.249 36.896 183.211 36.783C183.174 36.669 183.145 36.536 183.126 36.385C183.107 36.214 183.098 36.025 183.098 35.817C183.098 35.552 183.136 35.334 183.211 35.163C183.306 34.974 183.42 34.822 183.552 34.709C183.685 34.595 183.827 34.51 183.979 34.453C184.13 34.377 184.263 34.32 184.376 34.283C184.509 34.245 184.765 34.197 185.143 34.14C185.541 34.065 185.986 33.998 186.479 33.942C186.971 33.885 187.483 33.847 188.013 33.828C188.543 33.79 189.026 33.781 189.462 33.8C190.352 33.856 190.911 33.979 191.138 34.169C191.384 34.339 191.451 34.614 191.337 34.993C191.205 35.372 190.949 36.016 190.57 36.925C190.191 37.815 189.613 38.847 188.837 40.022C188.515 40.457 188.221 40.864 187.956 41.243C187.691 41.622 187.435 41.954 187.189 42.238C187.511 42.086 187.833 41.973 188.155 41.897C188.477 41.802 188.799 41.755 189.121 41.755C189.557 41.755 189.841 41.963 189.973 42.38C190.125 42.796 190.21 43.251 190.229 43.744C190.987 43.27 191.659 42.768 192.246 42.238C192.852 41.707 193.496 41.025 194.178 40.192C194.349 39.984 194.5 39.861 194.633 39.823C194.784 39.785 194.898 39.813 194.974 39.908C195.05 39.984 195.087 40.107 195.087 40.277C195.087 40.429 195.031 40.59 194.917 40.76ZM187.814 46.954C187.852 46.802 187.89 46.66 187.928 46.528C187.985 46.414 188.032 46.291 188.07 46.158C187.085 46.708 186.185 47.285 185.371 47.892C184.556 48.517 183.846 49.17 183.24 49.852C182.653 50.534 182.189 51.244 181.848 51.983C181.507 52.722 181.317 53.47 181.279 54.227C181.261 54.682 181.327 55.07 181.478 55.392C181.649 55.714 181.942 55.875 182.359 55.875C182.814 55.875 183.297 55.544 183.808 54.881C184.338 54.237 184.85 53.441 185.342 52.494C185.854 51.566 186.327 50.591 186.763 49.568C187.199 48.564 187.549 47.693 187.814 46.954Z" fill="white"/>
<path d="M182.188 39.4251C181.62 40.2581 180.976 41.073 180.256 41.868C179.537 42.645 178.77 43.3461 177.955 43.9711C177.16 44.5771 176.336 45.0691 175.483 45.4481C174.65 45.8271 173.835 46.0161 173.04 46.0161C172.623 46.0161 172.169 45.9121 171.676 45.7041C171.203 45.5141 170.767 45.2111 170.369 44.7951C169.971 44.3781 169.649 43.8381 169.403 43.1751C169.176 42.5121 169.11 41.7071 169.204 40.7601C169.28 39.9841 169.517 39.1691 169.915 38.3171C170.331 37.4461 170.833 36.6501 171.42 35.9301C172.027 35.2111 172.699 34.6141 173.438 34.1401C174.195 33.6671 174.953 33.4301 175.711 33.4301C176.43 33.4301 176.951 33.6101 177.273 33.9701C177.595 34.3301 177.737 34.7751 177.699 35.3051C177.643 35.8921 177.472 36.4321 177.188 36.9251C176.923 37.4171 176.601 37.8621 176.222 38.2601C175.843 38.6581 175.436 39.018 175 39.34C174.584 39.662 174.186 39.9551 173.807 40.2211C173.39 40.5051 172.993 40.7791 172.614 41.0441C172.235 41.2911 171.903 41.5181 171.619 41.7261C171.638 42.2001 171.724 42.5981 171.875 42.9201C172.027 43.2421 172.216 43.507 172.443 43.715C172.671 43.905 172.926 44.0471 173.21 44.1411C173.513 44.2171 173.817 44.2551 174.12 44.2551C174.764 44.2551 175.436 44.0561 176.137 43.6581C176.838 43.2421 177.519 42.7491 178.182 42.1811C178.864 41.5941 179.489 40.9881 180.058 40.3631C180.645 39.7381 181.128 39.198 181.507 38.743C181.639 38.592 181.772 38.5061 181.904 38.4871C182.056 38.4501 182.169 38.4681 182.245 38.5441C182.34 38.6011 182.387 38.7151 182.387 38.8851C182.387 39.0371 182.321 39.2171 182.188 39.4251ZM174.915 35.0501C174.688 35.0501 174.413 35.1631 174.091 35.3911C173.788 35.6181 173.485 35.9491 173.182 36.3851C172.879 36.8021 172.595 37.3231 172.33 37.9481C172.064 38.5541 171.866 39.2551 171.733 40.0501C171.96 39.8801 172.207 39.7091 172.472 39.5391C172.737 39.3491 173.002 39.1501 173.267 38.9421C174.082 38.3171 174.65 37.7681 174.972 37.2941C175.294 36.8211 175.474 36.4131 175.512 36.0721C175.55 35.7131 175.512 35.4571 175.398 35.3051C175.284 35.1351 175.123 35.0501 174.915 35.0501Z" fill="white"/>
<path d="M162.528 44.8799C163.361 41.3759 164.024 38.5629 164.517 36.4419C165.028 34.3199 165.416 32.7009 165.682 31.5833C165.985 30.2575 166.193 29.3388 166.307 28.8274C166.363 28.4676 166.411 28.1171 166.449 27.7762C166.486 27.4732 166.505 27.1606 166.505 26.8386C166.505 26.5166 166.477 26.223 166.42 25.9579C166.572 25.8632 166.733 25.7874 166.903 25.7306C167.093 25.6738 167.273 25.6264 167.443 25.5885C167.651 25.5317 167.86 25.4844 168.068 25.4465C168.276 25.4086 168.466 25.3896 168.636 25.3896C168.788 25.3896 168.93 25.4086 169.062 25.4465C169.195 25.4654 169.28 25.5222 169.318 25.6169C169.432 25.7116 169.479 25.9011 169.46 26.1852C169.46 26.4693 169.441 26.7629 169.403 27.0659C169.328 27.4258 169.242 27.8142 169.148 28.2309C168.92 29.0454 168.608 30.2196 168.21 31.7538C167.869 33.0609 167.405 34.8409 166.818 37.0949C166.25 39.3489 165.53 42.1899 164.659 45.6189C164.564 45.7129 164.45 45.7799 164.318 45.8179C164.185 45.8549 164.062 45.8739 163.948 45.8739C163.816 45.8739 163.674 45.8649 163.522 45.8459C163.39 45.8079 163.257 45.7509 163.124 45.6759C163.011 45.5999 162.897 45.4959 162.784 45.3629C162.67 45.2489 162.585 45.0879 162.528 44.8799Z" fill="white"/>
<path d="M164.858 39.6811C164.592 40.0601 164.252 40.5331 163.835 41.1011C163.418 41.6511 162.982 42.2091 162.528 42.7781C162.092 43.3271 161.657 43.8381 161.221 44.3121C160.804 44.7661 160.454 45.0881 160.17 45.2781C159.98 45.3911 159.763 45.4861 159.516 45.5621C159.27 45.6381 159.014 45.6851 158.749 45.7041C158.503 45.7231 158.266 45.7041 158.039 45.6471C157.812 45.6091 157.613 45.5331 157.442 45.4201C157.272 45.2871 157.13 45.0981 157.016 44.8521C156.921 44.6431 156.827 44.3691 156.732 44.0281C156.656 43.6871 156.628 43.2611 156.647 42.7491C156.192 43.5071 155.69 44.0941 155.141 44.5111C154.592 44.9081 154.071 45.2021 153.578 45.3911C153.01 45.6001 152.442 45.7231 151.874 45.7611C151.608 45.7611 151.324 45.6661 151.021 45.4771C150.718 45.3061 150.463 45.0321 150.254 44.6531C150.046 44.2551 149.913 43.7531 149.856 43.1471C149.8 42.5221 149.875 41.7831 150.084 40.9311C150.349 39.7751 150.766 38.7241 151.334 37.7771C151.921 36.8301 152.555 36.0251 153.237 35.3621C153.919 34.6801 154.592 34.1691 155.255 33.8281C155.918 33.4871 156.467 33.3351 156.902 33.3731C157.414 33.4681 157.831 33.6201 158.153 33.8281C158.418 34.0171 158.588 34.3011 158.664 34.6801C158.759 35.0401 158.607 35.5231 158.209 36.1291C158.475 36.0721 158.692 36.0351 158.863 36.0161C159.052 35.9971 159.194 35.9871 159.289 35.9871C159.403 35.9871 159.478 35.9971 159.516 36.0161C159.535 36.0541 159.545 36.1391 159.545 36.2711C159.545 36.3851 159.516 36.6031 159.459 36.9251C159.403 37.2471 159.317 37.6821 159.204 38.2321C159.09 38.7811 158.939 39.4911 158.749 40.3631C158.711 40.5331 158.673 40.6941 158.636 40.8461C158.617 40.9781 158.588 41.1201 158.55 41.2721C158.531 41.4041 158.503 41.5651 158.465 41.7551C158.427 41.9441 158.38 42.1811 158.323 42.4651C158.304 42.6351 158.295 42.8251 158.295 43.0331C158.314 43.2231 158.351 43.4031 158.408 43.5731C158.465 43.7441 158.55 43.8861 158.664 43.9991C158.797 44.0941 158.976 44.1411 159.204 44.1411C159.393 44.1411 159.639 44.0281 159.942 43.8001C160.246 43.5541 160.568 43.2511 160.908 42.8911C161.249 42.5121 161.6 42.1051 161.96 41.6691C162.338 41.2151 162.689 40.7791 163.011 40.3631C163.333 39.9461 163.617 39.5771 163.863 39.2551C164.128 38.9331 164.318 38.6961 164.431 38.5441C164.583 38.3741 164.735 38.2791 164.886 38.2601C165.038 38.2221 165.151 38.2601 165.227 38.3741C165.303 38.4871 165.312 38.6581 165.255 38.8851C165.218 39.1121 165.085 39.3781 164.858 39.6811ZM156.533 40.9311C156.628 40.5521 156.741 40.1071 156.874 39.5951C157.007 39.0841 157.12 38.5921 157.215 38.1181C157.31 37.6451 157.376 37.2561 157.414 36.9531C157.471 36.6311 157.461 36.4801 157.385 36.4991C157.291 36.5181 157.187 36.5461 157.073 36.5841C156.978 36.6221 156.855 36.6501 156.704 36.6691C156.552 36.6881 156.401 36.7161 156.249 36.7541C156.401 36.4511 156.486 36.2051 156.505 36.0161C156.543 35.8071 156.552 35.6461 156.533 35.5331C156.514 35.4001 156.476 35.2961 156.419 35.2201C156.211 35.0501 155.842 35.1921 155.311 35.6461C154.8 36.0821 154.203 36.8961 153.521 38.0901C153.237 38.5821 153.01 39.1121 152.84 39.6811C152.669 40.2301 152.546 40.7511 152.47 41.2431C152.413 41.7361 152.404 42.1711 152.442 42.5501C152.48 42.9101 152.555 43.1471 152.669 43.2611C152.877 43.4691 153.114 43.5731 153.379 43.5731C153.645 43.5541 153.91 43.4781 154.175 43.3461C154.459 43.1941 154.734 43.0051 154.999 42.7781C155.283 42.5501 155.529 42.3131 155.738 42.0671C155.965 41.8211 156.145 41.5941 156.277 41.3851C156.429 41.1771 156.514 41.0261 156.533 40.9311ZM158.493 27.8616C158.664 27.7291 158.853 27.7385 159.062 27.8901C159.27 28.0416 159.422 28.2689 159.516 28.5719C159.649 28.9697 159.658 29.2727 159.545 29.4811C159.431 29.6705 159.261 29.841 159.033 29.9925C158.92 30.0872 158.702 30.2198 158.38 30.3903C158.077 30.5607 157.736 30.7407 157.357 30.9301C156.997 31.1005 156.637 31.2615 156.277 31.4131C155.918 31.5457 155.643 31.6214 155.453 31.6404C155.245 31.6593 155.084 31.6404 154.97 31.5835C154.857 31.5078 154.762 31.4225 154.686 31.3278C154.63 31.2331 154.592 31.129 154.573 31.0153C154.554 30.8827 154.544 30.7691 154.544 30.6744C156.022 29.6516 157.054 28.9223 157.641 28.4867C157.982 28.2405 158.266 28.0321 158.493 27.8616Z" fill="white"/>
<path d="M152.016 40.76C151.883 40.95 151.665 41.224 151.362 41.584C151.078 41.944 150.728 42.332 150.311 42.749C149.913 43.166 149.449 43.601 148.919 44.056C148.407 44.492 147.858 44.889 147.271 45.249C147.195 45.685 147.053 46.301 146.845 47.096C146.636 47.911 146.362 48.791 146.021 49.738C145.68 50.685 145.282 51.642 144.827 52.608C144.373 53.593 143.861 54.483 143.293 55.279C142.744 56.093 142.138 56.746 141.475 57.239C140.812 57.75 140.111 58.006 139.372 58.006C138.634 58.006 138.056 57.883 137.639 57.637C137.223 57.39 136.92 57.068 136.73 56.671C136.522 56.292 136.399 55.866 136.361 55.392C136.323 54.938 136.314 54.493 136.332 54.057C136.351 53.489 136.522 52.826 136.844 52.068C137.166 51.329 137.611 50.572 138.179 49.795C138.766 49.038 139.467 48.308 140.282 47.607C141.096 46.926 142.005 46.348 143.009 45.874C143.502 45.666 143.956 45.467 144.373 45.278C144.79 45.069 145.178 44.871 145.538 44.681C145.689 44.056 145.699 43.639 145.566 43.431C145.453 43.223 145.282 43.118 145.055 43.118C144.714 43.118 144.307 43.27 143.833 43.573C143.379 43.876 142.81 44.35 142.128 44.994C141.939 45.013 141.769 44.994 141.617 44.937C141.484 44.861 141.371 44.776 141.276 44.681C141.162 44.586 141.068 44.473 140.992 44.34C140.784 44.018 140.689 43.696 140.708 43.374C140.746 43.052 140.897 42.796 141.162 42.607C141.428 42.399 141.816 42.067 142.327 41.613C142.858 41.139 143.369 40.543 143.861 39.823C144.013 39.614 144.193 39.359 144.401 39.056C144.629 38.734 144.846 38.393 145.055 38.033C145.282 37.654 145.49 37.266 145.68 36.868C145.888 36.47 146.049 36.091 146.163 35.732C145.784 35.675 145.235 35.684 144.515 35.76C144.136 35.836 143.729 35.921 143.293 36.016C142.914 36.11 142.479 36.233 141.986 36.385C141.513 36.536 141.011 36.745 140.481 37.01C140.405 36.972 140.348 36.896 140.31 36.783C140.272 36.669 140.244 36.536 140.225 36.385C140.206 36.214 140.196 36.025 140.196 35.817C140.196 35.552 140.234 35.334 140.31 35.163C140.405 34.974 140.518 34.822 140.651 34.709C140.784 34.595 140.926 34.51 141.077 34.453C141.229 34.377 141.361 34.32 141.475 34.283C141.608 34.245 141.863 34.197 142.242 34.14C142.64 34.065 143.085 33.998 143.577 33.942C144.07 33.885 144.581 33.847 145.112 33.828C145.642 33.79 146.125 33.781 146.561 33.8C147.451 33.856 148.01 33.979 148.237 34.169C148.483 34.339 148.549 34.614 148.436 34.993C148.303 35.372 148.047 36.016 147.669 36.925C147.29 37.815 146.712 38.847 145.936 40.022C145.614 40.457 145.32 40.864 145.055 41.243C144.79 41.622 144.534 41.954 144.288 42.238C144.61 42.086 144.932 41.973 145.254 41.897C145.576 41.802 145.898 41.755 146.22 41.755C146.655 41.755 146.939 41.963 147.072 42.38C147.224 42.796 147.309 43.251 147.328 43.744C148.085 43.27 148.758 42.768 149.345 42.238C149.951 41.707 150.595 41.025 151.277 40.192C151.447 39.984 151.599 39.861 151.731 39.823C151.883 39.785 151.997 39.813 152.072 39.908C152.148 39.984 152.186 40.107 152.186 40.277C152.186 40.429 152.129 40.59 152.016 40.76ZM144.913 46.954C144.951 46.802 144.988 46.66 145.026 46.528C145.083 46.414 145.131 46.291 145.168 46.158C144.183 46.708 143.284 47.285 142.469 47.892C141.655 48.517 140.945 49.17 140.338 49.852C139.751 50.534 139.287 51.244 138.946 51.983C138.605 52.722 138.416 53.47 138.378 54.227C138.359 54.682 138.425 55.07 138.577 55.392C138.747 55.714 139.041 55.875 139.458 55.875C139.912 55.875 140.395 55.544 140.907 54.881C141.437 54.237 141.948 53.441 142.441 52.494C142.952 51.566 143.426 50.591 143.861 49.568C144.297 48.564 144.648 47.693 144.913 46.954Z" fill="white"/>
<path d="M132.241 46.045C131.806 46.045 131.427 45.96 131.105 45.789C130.802 45.638 130.556 45.429 130.366 45.164C130.177 44.899 130.054 44.596 129.997 44.255C129.94 43.895 129.959 43.516 130.054 43.118C130.11 42.853 130.205 42.503 130.338 42.067C130.47 41.613 130.603 41.13 130.735 40.618C130.887 40.088 131.02 39.567 131.133 39.056C131.266 38.525 131.351 38.052 131.389 37.635C131.427 37.199 131.408 36.849 131.332 36.584C131.256 36.3 131.095 36.158 130.849 36.158C130.546 36.158 130.234 36.262 129.912 36.47C129.59 36.66 129.258 36.925 128.917 37.266C128.595 37.607 128.264 38.004 127.923 38.459C127.601 38.895 127.279 39.349 126.957 39.823C126.786 40.467 126.644 41.035 126.531 41.527C126.417 42.001 126.313 42.437 126.218 42.834C126.142 43.213 126.067 43.554 125.991 43.857C125.915 44.141 125.849 44.416 125.792 44.681C125.735 44.871 125.565 45.06 125.28 45.249C124.996 45.42 124.693 45.562 124.371 45.676C124.049 45.789 123.775 45.846 123.547 45.846C123.301 45.846 123.197 45.761 123.235 45.59C123.254 45.477 123.32 45.221 123.434 44.823C123.528 44.425 123.652 43.961 123.803 43.431C123.936 42.882 124.078 42.304 124.229 41.698C124.381 41.092 124.523 40.514 124.655 39.965C124.75 39.529 124.854 39.046 124.968 38.516C125.063 38.061 125.176 37.531 125.309 36.925C125.46 36.319 125.631 35.656 125.82 34.936C125.953 34.822 126.085 34.737 126.218 34.68C126.37 34.605 126.521 34.548 126.673 34.51C126.824 34.453 126.985 34.415 127.156 34.396C127.307 34.396 127.459 34.406 127.61 34.425C127.743 34.444 127.875 34.481 128.008 34.538C128.16 34.576 128.292 34.642 128.406 34.737C128.349 34.87 128.283 35.059 128.207 35.305C128.131 35.533 128.055 35.779 127.98 36.044C127.904 36.347 127.809 36.66 127.695 36.982C127.942 36.641 128.216 36.3 128.519 35.959C128.841 35.599 129.182 35.277 129.542 34.993C129.921 34.709 130.319 34.481 130.735 34.311C131.152 34.122 131.578 34.027 132.014 34.027C132.374 34.027 132.696 34.131 132.98 34.339C133.264 34.548 133.482 34.841 133.633 35.22C133.804 35.58 133.899 36.016 133.918 36.527C133.955 37.038 133.889 37.597 133.719 38.203L133.406 39.453C133.311 39.851 133.188 40.325 133.037 40.874C132.904 41.404 132.734 41.991 132.525 42.635C132.412 43.052 132.364 43.412 132.383 43.715C132.421 44.018 132.611 44.17 132.952 44.17C133.293 44.17 133.719 43.961 134.23 43.545C134.76 43.128 135.291 42.626 135.821 42.039C136.351 41.452 136.853 40.855 137.327 40.249C137.8 39.624 138.16 39.122 138.407 38.743C138.577 38.497 138.738 38.336 138.89 38.26C139.041 38.184 139.155 38.175 139.231 38.232C139.325 38.289 139.373 38.421 139.373 38.629C139.373 38.819 139.297 39.065 139.145 39.368C139.013 39.633 138.804 39.984 138.52 40.419C138.255 40.855 137.933 41.319 137.554 41.812C137.175 42.304 136.768 42.806 136.333 43.317C135.897 43.81 135.442 44.264 134.969 44.681C134.495 45.079 134.022 45.401 133.548 45.647C133.094 45.912 132.658 46.045 132.241 46.045Z" fill="white"/>
<path d="M120.763 40.817C120.574 41.537 120.318 42.209 119.996 42.834C119.674 43.459 119.286 43.999 118.831 44.454C118.395 44.908 117.893 45.259 117.325 45.505C116.776 45.77 116.17 45.903 115.507 45.903C114.73 45.903 114.115 45.732 113.66 45.391C113.225 45.069 112.893 44.662 112.666 44.17C112.457 43.677 112.334 43.137 112.296 42.55C112.24 41.963 112.211 41.414 112.211 40.902C112.211 40.543 112.259 40.145 112.353 39.709C112.429 39.273 112.543 38.828 112.694 38.374C112.846 37.919 113.035 37.465 113.262 37.01C113.509 36.555 113.793 36.139 114.115 35.76C114.228 35.438 114.399 35.154 114.626 34.908C114.872 34.661 115.147 34.462 115.45 34.311C115.772 34.14 116.113 34.017 116.473 33.942C116.833 33.847 117.183 33.8 117.524 33.8C117.581 33.8 117.628 33.809 117.666 33.828C117.723 33.847 117.78 33.866 117.837 33.885C118.083 33.904 118.386 33.998 118.746 34.169C119.125 34.339 119.485 34.595 119.825 34.936C120.185 35.277 120.488 35.713 120.735 36.243C120.981 36.754 121.104 37.379 121.104 38.118C121.104 38.27 121.094 38.459 121.076 38.686C121.057 38.895 121.038 39.075 121.019 39.226C121.454 39.056 121.909 38.847 122.382 38.601C122.856 38.355 123.311 38.099 123.746 37.834C124.201 37.55 124.617 37.266 124.996 36.982C125.375 36.697 125.678 36.442 125.905 36.215C126.095 36.044 126.256 35.949 126.388 35.93C126.521 35.911 126.616 35.949 126.673 36.044C126.729 36.139 126.739 36.271 126.701 36.442C126.663 36.612 126.559 36.802 126.388 37.01C126.294 37.124 126.048 37.351 125.65 37.692C125.271 38.033 124.816 38.402 124.286 38.8C123.756 39.198 123.178 39.586 122.553 39.965C121.928 40.344 121.331 40.628 120.763 40.817ZM115.961 36.499C115.905 36.669 115.876 36.849 115.876 37.038C115.876 37.341 115.895 37.663 115.933 38.004C115.971 38.326 116.066 38.62 116.217 38.885C116.369 39.15 116.605 39.378 116.927 39.567C117.268 39.738 117.732 39.823 118.32 39.823C118.414 39.823 118.509 39.823 118.604 39.823C118.698 39.804 118.793 39.785 118.888 39.766C118.945 39.52 118.992 39.302 119.03 39.112C119.087 38.904 119.115 38.724 119.115 38.573C119.153 38.213 119.153 37.843 119.115 37.465C119.077 37.086 119.002 36.745 118.888 36.442C118.793 36.12 118.661 35.864 118.49 35.675C118.339 35.466 118.149 35.362 117.922 35.362C117.562 35.362 117.212 35.466 116.871 35.675C116.549 35.864 116.246 36.139 115.961 36.499ZM114.143 41.499C114.143 41.84 114.162 42.181 114.2 42.522C114.238 42.844 114.314 43.137 114.427 43.403C114.541 43.649 114.692 43.857 114.882 44.028C115.071 44.179 115.317 44.255 115.621 44.255C115.961 44.255 116.274 44.179 116.558 44.028C116.842 43.857 117.098 43.649 117.325 43.403C117.553 43.137 117.751 42.844 117.922 42.522C118.111 42.181 118.272 41.83 118.405 41.471C118.272 41.49 118.14 41.508 118.007 41.527C117.893 41.527 117.761 41.527 117.609 41.527C116.89 41.527 116.265 41.319 115.734 40.902C115.223 40.467 114.825 39.917 114.541 39.255C114.427 39.652 114.333 40.041 114.257 40.419C114.181 40.798 114.143 41.158 114.143 41.499Z" fill="white"/>
<path d="M100.761 50.875C99.833 50.875 99 50.629 98.261 50.136C97.522 49.663 96.897 49.009 96.386 48.176C95.875 47.342 95.496 46.376 95.25 45.278C95.022 44.179 94.937 43.014 94.994 41.783C95.07 40.476 95.268 39.131 95.59 37.749C95.912 36.347 96.348 34.983 96.897 33.657C97.447 32.3316 98.081 31.072 98.801 29.8788C99.54 28.6855 100.345 27.6437 101.216 26.7535C102.106 25.8633 103.053 25.1625 104.057 24.651C105.061 24.1207 106.112 23.8555 107.211 23.8555C107.931 23.8555 108.537 24.0355 109.029 24.3953C109.522 24.7552 109.9 25.2287 110.166 25.8159C110.45 26.3841 110.63 27.0281 110.705 27.7479C110.781 28.4677 110.772 29.1874 110.677 29.9072C110.601 30.608 110.44 31.2899 110.194 31.9528C109.967 32.5968 109.683 33.127 109.342 33.544C108.906 34.093 108.508 34.387 108.148 34.425C107.807 34.444 107.476 34.339 107.154 34.112C107.021 33.998 106.889 33.866 106.756 33.714C106.624 33.582 106.482 33.421 106.33 33.231C106.178 33.023 106.017 32.7672 105.847 32.4642C106.207 32.3316 106.538 32.1138 106.841 31.8107C107.144 31.4887 107.4 31.1289 107.609 30.7311C107.836 30.3333 108.006 29.9166 108.12 29.481C108.253 29.0264 108.328 28.5813 108.347 28.1457C108.366 27.8047 108.357 27.4733 108.319 27.1513C108.281 26.8103 108.205 26.5167 108.092 26.2705C107.978 26.0053 107.817 25.797 107.609 25.6454C107.419 25.475 107.173 25.3897 106.87 25.3897C106.112 25.3897 105.373 25.6833 104.654 26.2705C103.934 26.8387 103.252 27.6058 102.608 28.5718C101.983 29.5189 101.396 30.608 100.847 31.8391C100.316 33.07 99.852 34.339 99.454 35.646C99.057 36.953 98.735 38.241 98.488 39.51C98.242 40.779 98.091 41.935 98.034 42.976C97.958 44.283 98.005 45.344 98.176 46.158C98.346 46.973 98.574 47.607 98.858 48.062C99.161 48.536 99.483 48.848 99.824 49C100.165 49.17 100.477 49.255 100.761 49.255C101.292 49.255 101.888 49.009 102.551 48.517C103.214 48.024 103.849 47.352 104.455 46.499C105.061 45.666 105.601 44.7 106.074 43.601C106.567 42.503 106.917 41.347 107.126 40.135C106.652 40.135 106.169 40.145 105.677 40.164C105.203 40.164 104.748 40.173 104.313 40.192C103.877 40.211 103.489 40.239 103.148 40.277C102.807 40.296 102.542 40.325 102.352 40.363C102.22 40.306 102.125 40.239 102.068 40.164C102.03 40.088 101.993 40.003 101.955 39.908C101.917 39.832 101.898 39.738 101.898 39.624C101.898 39.51 101.917 39.406 101.955 39.311C101.993 39.217 102.04 39.122 102.097 39.027C102.154 38.914 102.229 38.8 102.324 38.686C102.93 38.573 103.527 38.478 104.114 38.402C104.701 38.326 105.307 38.27 105.932 38.232C106.576 38.175 107.258 38.137 107.978 38.118C108.717 38.08 109.541 38.052 110.45 38.033C110.828 38.014 111.056 38.061 111.132 38.175C111.226 38.289 111.198 38.573 111.046 39.027C110.933 39.387 110.781 39.681 110.592 39.908C110.421 40.135 110.128 40.23 109.711 40.192C109.578 40.192 109.474 40.183 109.398 40.164C109.228 41.281 108.868 42.465 108.319 43.715C107.77 44.965 107.097 46.121 106.302 47.181C105.506 48.242 104.625 49.123 103.659 49.824C102.712 50.524 101.746 50.875 100.761 50.875Z" fill="white"/>
<path d="M32.723 6.0866C32.723 7.6351 32.131 9.1251 31.069 10.2521L26.159 15.4637C17.409 24.7515 17.409 39.249 26.159 48.536L31.069 53.747C32.131 54.875 32.723 56.365 32.723 57.913C32.723 63.412 25.999 66.081 22.227 62.079L4.455 43.222C-1.485 36.92 -1.485 27.0808 4.455 20.7787L22.228 1.9205C25.999 -2.0813 32.723 0.587704 32.723 6.0866Z" fill="#EFEFEF"/>
<path d="M48.481 32.0001C48.481 38.026 43.597 42.91 37.571 42.91C31.546 42.91 26.661 38.026 26.661 32.0001C26.661 25.9747 31.546 21.0902 37.571 21.0902C43.597 21.0902 48.481 25.9747 48.481 32.0001Z" fill="url(#paint0_linear_12_22)"/>
<path d="M70.683 20.7835C76.619 27.0835 76.619 36.917 70.683 43.217L52.922 62.069C49.149 66.074 42.42 63.403 42.42 57.901C42.42 56.351 43.012 54.86 44.075 53.733L48.98 48.527C57.725 39.245 57.725 24.7557 48.98 15.4735L44.075 10.2676C43.012 9.1399 42.42 7.649 42.42 6.0995C42.42 0.596901 49.149 -2.0735 52.922 1.9316L70.683 20.7835Z" fill="white"/>
<defs>
<linearGradient id="paint0_linear_12_22" x1="27" y1="21" x2="48" y2="43" gradientUnits="userSpaceOnUse">
<stop stop-color="#23B1F9"/>
<stop offset="1" stop-color="#1592D1"/>
</linearGradient>
</defs>
</svg>
