<svg width="675" height="106" viewBox="0 0 675 106" fill="none" xmlns="http://www.w3.org/2000/svg">
<path d="M53.9878 10.0421C53.9878 12.5969 53.0121 15.0552 51.2602 16.9146L43.1592 25.513C28.7219 40.8366 28.722 64.7551 43.1595 80.0785L51.26 88.676C53.012 90.5356 53.9878 92.994 53.9878 95.5489C53.9878 104.622 42.8945 109.025 36.6719 102.423L7.34945 71.3099C-2.44981 60.9122 -2.44982 44.6796 7.34945 34.282L36.6725 3.1685C42.8949 -3.43384 53.9878 0.969697 53.9878 10.0421Z" fill="#F7F7F7" class="color-secondary"/>
<path d="M79.9878 52.7959C79.9878 62.737 71.9289 70.7959 61.9878 70.7959C52.0466 70.7959 43.9878 62.737 43.9878 52.7959C43.9878 42.8548 52.0466 34.7959 61.9878 34.7959C71.9289 34.7959 79.9878 42.8548 79.9878 52.7959Z" fill="url(#paint0_linear_7_138)"/>
<path d="M116.618 34.2899C126.41 44.684 126.41 60.9078 116.618 71.3019L87.3145 102.405C81.089 109.013 69.9878 104.607 69.9878 95.5284C69.9878 92.9721 70.9641 90.5122 72.7171 88.6516L80.8097 80.0626C95.239 64.7482 95.239 40.8436 80.8097 25.5292L72.7171 16.9402C70.9641 15.0796 69.9878 12.6198 69.9878 10.0634C69.9878 0.984771 81.089 -3.42099 87.3145 3.18694L116.618 34.2899Z" />
<path d="M642.661 70.75L641.765 25.054H652.773L652.197 48.222C652.197 49.0753 652.154 49.9073 652.069 50.718C652.026 51.5287 651.962 52.3607 651.877 53.214C651.791 54.0673 651.685 55.0487 651.557 56.158H651.685C651.898 55.262 652.133 54.3873 652.389 53.534C652.645 52.6807 652.922 51.8273 653.221 50.974C653.519 50.1207 653.839 49.246 654.181 48.35L663.461 25.054H674.917L654.949 70.75H642.661Z" fill="url(#paint1_linear_7_138)"/>
<path d="M611.24 70.75L620.904 25.054H641.64L639.72 34.27H629.672L627.88 42.526H637.224L635.24 51.742H625.96L623.848 61.406H633.96L631.976 70.75H611.24Z" fill="url(#paint2_linear_7_138)"/>
<path d="M579.05 70.75L588.714 25.054H599.21C604.117 25.054 607.829 26.3553 610.346 28.958C612.906 31.518 614.186 35.0593 614.186 39.582C614.186 42.4407 613.887 45.342 613.29 48.286C612.735 51.23 611.861 54.046 610.666 56.734C609.471 59.3793 607.935 61.7687 606.058 63.902C604.223 65.9927 602.026 67.6567 599.466 68.894C596.949 70.1313 594.047 70.75 590.762 70.75H579.05ZM592.362 61.278C593.898 61.278 595.242 60.7873 596.394 59.806C597.589 58.782 598.591 57.4807 599.402 55.902C600.255 54.2807 600.938 52.5527 601.45 50.718C601.962 48.8407 602.325 47.0273 602.538 45.278C602.794 43.5287 602.922 42.014 602.922 40.734C602.922 38.6007 602.538 37.022 601.77 35.998C601.002 34.974 599.85 34.462 598.314 34.462H597.418L591.722 61.278H592.362Z" fill="url(#paint3_linear_7_138)"/>
<path d="M570.041 71.518C568.42 71.518 567.182 71.1553 566.329 70.43C565.476 69.7047 565.049 68.6167 565.049 67.166C565.049 65.8433 565.326 64.606 565.881 63.454C566.436 62.302 567.246 61.3633 568.313 60.638C569.422 59.9127 570.766 59.55 572.345 59.55C573.796 59.55 574.926 59.934 575.737 60.702C576.548 61.4273 576.953 62.4727 576.953 63.838C576.953 65.374 576.612 66.718 575.929 67.87C575.289 69.022 574.436 69.918 573.369 70.558C572.345 71.198 571.236 71.518 570.041 71.518Z" fill="url(#paint4_linear_7_138)"/>
<path d="M562.702 63.958V70.75H541.12V63.958H562.702ZM562.385 41.519L544.104 70.75H538.772V65.4497L556.958 36.4092H562.385V41.519ZM559.433 36.4092V43.2329H539.057V36.4092H559.433Z" fill="white" class="color-primary"/>
<path d="M522.109 71.3848C519.824 71.3848 517.793 71.0356 516.015 70.3374C514.259 69.6392 512.767 68.6235 511.54 67.2905C510.313 65.9575 509.372 64.3177 508.716 62.3711C508.081 60.4245 507.763 58.1922 507.763 55.6743V52.5957C507.763 49.7393 508.091 47.2637 508.747 45.1689C509.403 43.0531 510.313 41.3075 511.477 39.9321C512.662 38.5356 514.079 37.4989 515.73 36.8218C517.401 36.1235 519.242 35.7744 521.252 35.7744C523.41 35.7744 525.294 36.1341 526.902 36.8535C528.531 37.5518 529.874 38.5991 530.932 39.9956C531.99 41.3921 532.773 43.1271 533.281 45.2007C533.81 47.2531 534.074 49.6335 534.074 52.3418V56.2456H511.413V50.3105H526.076V49.5171C526.034 48.036 525.854 46.777 525.537 45.7402C525.219 44.7035 524.712 43.9206 524.013 43.3916C523.336 42.8415 522.405 42.5664 521.22 42.5664C520.289 42.5664 519.485 42.7568 518.808 43.1377C518.131 43.4974 517.581 44.0687 517.158 44.8516C516.756 45.6133 516.449 46.6395 516.238 47.9302C516.026 49.1997 515.92 50.7549 515.92 52.5957V55.6743C515.92 57.3035 516.068 58.6895 516.365 59.832C516.661 60.9535 517.094 61.8739 517.666 62.5933C518.237 63.2915 518.935 63.7993 519.76 64.1167C520.586 64.4341 521.548 64.5928 522.649 64.5928C524.299 64.5928 525.748 64.2965 526.997 63.7041C528.245 63.0905 529.324 62.2759 530.234 61.2603L533.63 66.2432C533.017 67.0684 532.181 67.883 531.123 68.687C530.065 69.4699 528.785 70.1152 527.282 70.623C525.801 71.1309 524.077 71.3848 522.109 71.3848Z" fill="white" class="color-primary"/>
<path d="M501.162 22V70.75H493.005V22H501.162Z" fill="white" class="color-primary"/>
<path d="M477.326 63.3232V46.8193C477.326 45.6979 477.178 44.8092 476.882 44.1533C476.607 43.4974 476.194 43.0213 475.644 42.7251C475.094 42.4077 474.417 42.249 473.613 42.249C472.746 42.249 472.016 42.4289 471.423 42.7886C470.831 43.1271 470.386 43.6243 470.09 44.2803C469.815 44.915 469.677 45.6662 469.677 46.5337H461.521C461.521 45.0949 461.806 43.7301 462.378 42.4395C462.949 41.1488 463.774 40.0062 464.853 39.0117C465.932 37.9961 467.234 37.2026 468.757 36.6313C470.281 36.0601 471.984 35.7744 473.867 35.7744C476.11 35.7744 478.099 36.1553 479.834 36.917C481.59 37.6576 482.965 38.853 483.96 40.5034C484.975 42.1326 485.483 44.2697 485.483 46.9146V62.5933C485.483 64.3494 485.578 65.8411 485.769 67.0684C485.98 68.2956 486.287 69.3429 486.689 70.2104V70.75H478.437C478.078 69.8613 477.802 68.7399 477.612 67.3857C477.422 66.0104 477.326 64.6562 477.326 63.3232ZM478.374 49.8027L478.406 54.8809H474.978C474.026 54.8809 473.179 55.0184 472.439 55.2935C471.719 55.5685 471.106 55.96 470.598 56.4678C470.09 56.9756 469.709 57.5786 469.455 58.2769C469.201 58.9751 469.074 59.7368 469.074 60.562C469.074 61.5142 469.212 62.3076 469.487 62.9424C469.762 63.556 470.164 64.0215 470.693 64.3389C471.222 64.6351 471.867 64.7832 472.629 64.7832C473.708 64.7832 474.639 64.5505 475.422 64.085C476.226 63.6195 476.829 63.0693 477.231 62.4346C477.654 61.7786 477.813 61.165 477.707 60.5938L479.548 63.8945C479.337 64.6774 479.009 65.5026 478.564 66.3701C478.12 67.2376 477.549 68.0522 476.85 68.814C476.173 69.5757 475.337 70.1999 474.343 70.6865C473.37 71.152 472.217 71.3848 470.884 71.3848C469 71.3848 467.297 70.9722 465.774 70.147C464.271 69.3218 463.087 68.158 462.219 66.6558C461.351 65.1323 460.918 63.3127 460.918 61.1968C460.918 59.4618 461.203 57.896 461.775 56.4995C462.346 55.103 463.182 53.9076 464.282 52.9131C465.403 51.9186 466.821 51.1569 468.535 50.6279C470.249 50.0778 472.259 49.8027 474.565 49.8027H478.374Z" fill="white" class="color-primary"/>
<path d="M455.681 63.958V70.75H434.099V63.958H455.681ZM455.364 41.519L437.082 70.75H431.75V65.4497L449.936 36.4092H455.364V41.519ZM452.412 36.4092V43.2329H432.036V36.4092H452.412Z" fill="white" class="color-primary"/>
<path d="M408.74 43.7407V70.75H400.583V36.4092H408.201L408.74 43.7407ZM407.407 52.3735L405.058 52.4053C405.016 49.8874 405.259 47.6128 405.788 45.5815C406.339 43.5291 407.121 41.7729 408.137 40.313C409.153 38.853 410.369 37.7316 411.787 36.9487C413.205 36.1659 414.791 35.7744 416.548 35.7744C417.902 35.7744 419.129 36.0072 420.229 36.4727C421.351 36.9382 422.313 37.6787 423.117 38.6943C423.922 39.71 424.546 41.043 424.99 42.6934C425.434 44.3438 425.657 46.3644 425.657 48.7554V70.75H417.5V48.6919C417.5 47.1473 417.331 45.9412 416.992 45.0737C416.675 44.1851 416.199 43.5609 415.564 43.2012C414.95 42.8203 414.157 42.6299 413.183 42.6299C412.274 42.6299 411.459 42.8838 410.74 43.3916C410.02 43.8783 409.407 44.5765 408.899 45.4863C408.412 46.375 408.042 47.4118 407.788 48.5967C407.534 49.7604 407.407 51.0194 407.407 52.3735Z" fill="white" class="color-primary"/>
<path d="M367.226 54.8491V52.3418C367.226 49.6546 367.554 47.2848 368.21 45.2324C368.866 43.1589 369.797 41.4238 371.003 40.0273C372.209 38.6309 373.648 37.5729 375.32 36.8535C377.012 36.1341 378.885 35.7744 380.937 35.7744C383.032 35.7744 384.915 36.1341 386.587 36.8535C388.279 37.5729 389.729 38.6309 390.935 40.0273C392.162 41.4238 393.093 43.1589 393.728 45.2324C394.384 47.2848 394.712 49.6546 394.712 52.3418V54.8491C394.712 57.5363 394.384 59.9061 393.728 61.9585C393.093 64.0109 392.162 65.7459 390.935 67.1636C389.729 68.5601 388.279 69.618 386.587 70.3374C384.915 71.0356 383.053 71.3848 381.001 71.3848C378.948 71.3848 377.076 71.0356 375.383 70.3374C373.712 69.618 372.262 68.5601 371.035 67.1636C369.808 65.7459 368.866 64.0109 368.21 61.9585C367.554 59.9061 367.226 57.5363 367.226 54.8491ZM375.383 52.3418V54.8491C375.383 56.5207 375.51 57.9701 375.764 59.1973C376.018 60.4033 376.388 61.4084 376.875 62.2124C377.383 63.0164 377.975 63.6195 378.652 64.0215C379.35 64.4023 380.133 64.5928 381.001 64.5928C381.932 64.5928 382.746 64.4023 383.445 64.0215C384.143 63.6195 384.725 63.0164 385.19 62.2124C385.656 61.4084 386.005 60.4033 386.238 59.1973C386.47 57.9701 386.587 56.5207 386.587 54.8491V52.3418C386.587 50.7126 386.449 49.2843 386.174 48.0571C385.92 46.8299 385.55 45.8143 385.063 45.0103C384.577 44.2062 383.984 43.6032 383.286 43.2012C382.588 42.778 381.805 42.5664 380.937 42.5664C380.091 42.5664 379.329 42.778 378.652 43.2012C377.975 43.6032 377.383 44.2062 376.875 45.0103C376.388 45.8143 376.018 46.8299 375.764 48.0571C375.51 49.2843 375.383 50.7126 375.383 52.3418Z" fill="white" class="color-primary"/>
<path d="M353.896 36.4092H361.291V70.8135C361.291 73.9238 360.709 76.4735 359.546 78.4624C358.382 80.4513 356.763 81.9113 354.69 82.8423C352.637 83.7944 350.236 84.2705 347.485 84.2705C346.448 84.2705 345.263 84.1224 343.93 83.8262C342.597 83.5299 341.296 83.075 340.027 82.4614C338.778 81.8478 337.742 81.1073 336.916 80.2397L339.773 74.5903C340.683 75.5002 341.804 76.2407 343.137 76.812C344.491 77.3833 345.803 77.6689 347.073 77.6689C348.363 77.6689 349.453 77.4574 350.342 77.0342C351.251 76.611 351.939 75.9022 352.405 74.9077C352.87 73.9344 353.103 72.6014 353.103 70.9087V44.2803L353.896 36.4092ZM334.631 54.8809V52.4053C334.631 49.5911 334.885 47.1473 335.393 45.0737C335.922 42.979 336.684 41.244 337.678 39.8687C338.694 38.4933 339.921 37.4671 341.36 36.79C342.798 36.113 344.417 35.7744 346.216 35.7744C348.078 35.7744 349.643 36.1764 350.913 36.9805C352.182 37.7633 353.219 38.8742 354.023 40.313C354.827 41.7518 355.451 43.4657 355.896 45.4546C356.34 47.4224 356.679 49.5911 356.911 51.9609V55.5156C356.7 57.7796 356.33 59.8849 355.801 61.8315C355.293 63.7782 354.605 65.4603 353.738 66.8779C352.891 68.2956 351.844 69.4064 350.596 70.2104C349.368 70.9933 347.887 71.3848 346.152 71.3848C344.375 71.3848 342.767 71.0356 341.328 70.3374C339.91 69.618 338.694 68.5706 337.678 67.1953C336.684 65.7988 335.922 64.0744 335.393 62.022C334.885 59.9484 334.631 57.568 334.631 54.8809ZM342.788 52.4053V54.8809C342.788 56.5524 342.894 58.0018 343.105 59.229C343.338 60.4351 343.677 61.4295 344.121 62.2124C344.586 62.9741 345.179 63.5454 345.898 63.9263C346.618 64.286 347.475 64.4658 348.469 64.4658C349.823 64.4658 350.913 64.1484 351.738 63.5137C352.563 62.8789 353.187 62.0114 353.611 60.9111C354.034 59.7897 354.309 58.5202 354.436 57.1025V50.4058C354.351 49.2632 354.171 48.2158 353.896 47.2637C353.642 46.3115 353.272 45.4969 352.785 44.8198C352.32 44.1216 351.728 43.582 351.008 43.2012C350.31 42.8203 349.485 42.6299 348.533 42.6299C347.559 42.6299 346.702 42.8309 345.962 43.2329C345.242 43.6138 344.65 44.1956 344.184 44.9785C343.719 45.7614 343.37 46.777 343.137 48.0254C342.904 49.2526 342.788 50.7126 342.788 52.4053Z" fill="white" class="color-primary"/>
<path d="M328.664 47.5811V54.373H313.779V47.5811H328.664Z" fill="white" class="color-primary"/>
<path d="M280.454 54.8491V52.3418C280.454 49.6546 280.782 47.2848 281.438 45.2324C282.094 43.1589 283.025 41.4238 284.231 40.0273C285.437 38.6309 286.876 37.5729 288.547 36.8535C290.24 36.1341 292.112 35.7744 294.165 35.7744C296.26 35.7744 298.143 36.1341 299.814 36.8535C301.507 37.5729 302.956 38.6309 304.162 40.0273C305.39 41.4238 306.321 43.1589 306.955 45.2324C307.611 47.2848 307.939 49.6546 307.939 52.3418V54.8491C307.939 57.5363 307.611 59.9061 306.955 61.9585C306.321 64.0109 305.39 65.7459 304.162 67.1636C302.956 68.5601 301.507 69.618 299.814 70.3374C298.143 71.0356 296.281 71.3848 294.228 71.3848C292.176 71.3848 290.303 71.0356 288.611 70.3374C286.939 69.618 285.49 68.5601 284.263 67.1636C283.035 65.7459 282.094 64.0109 281.438 61.9585C280.782 59.9061 280.454 57.5363 280.454 54.8491ZM288.611 52.3418V54.8491C288.611 56.5207 288.738 57.9701 288.992 59.1973C289.245 60.4033 289.616 61.4084 290.102 62.2124C290.61 63.0164 291.203 63.6195 291.88 64.0215C292.578 64.4023 293.361 64.5928 294.228 64.5928C295.159 64.5928 295.974 64.4023 296.672 64.0215C297.37 63.6195 297.952 63.0164 298.418 62.2124C298.883 61.4084 299.232 60.4033 299.465 59.1973C299.698 57.9701 299.814 56.5207 299.814 54.8491V52.3418C299.814 50.7126 299.677 49.2843 299.402 48.0571C299.148 46.8299 298.777 45.8143 298.291 45.0103C297.804 44.2062 297.212 43.6032 296.513 43.2012C295.815 42.778 295.032 42.5664 294.165 42.5664C293.319 42.5664 292.557 42.778 291.88 43.2012C291.203 43.6032 290.61 44.2062 290.102 45.0103C289.616 45.8143 289.245 46.8299 288.992 48.0571C288.738 49.2843 288.611 50.7126 288.611 52.3418Z" fill="white" class="color-primary"/>
<path d="M269.536 43.5503V70.75H261.411V36.4092H269.123L269.536 43.5503ZM277.724 36.1553L277.661 44.2485C277.238 44.1639 276.762 44.1004 276.233 44.0581C275.725 44.0158 275.249 43.9946 274.805 43.9946C273.81 43.9946 272.953 44.1639 272.234 44.5024C271.514 44.841 270.911 45.3276 270.425 45.9624C269.938 46.5972 269.568 47.38 269.314 48.311C269.06 49.2209 268.901 50.2576 268.838 51.4214L267.187 51.1357C267.187 48.9352 267.357 46.904 267.695 45.042C268.055 43.18 268.573 41.5614 269.25 40.186C269.949 38.7896 270.805 37.7104 271.821 36.9487C272.837 36.1659 274 35.7744 275.312 35.7744C275.714 35.7744 276.148 35.8167 276.614 35.9014C277.1 35.9648 277.471 36.0495 277.724 36.1553Z" fill="white" class="color-primary"/>
<path d="M246.304 62.5615V36.4092H254.46V70.75H246.811L246.304 62.5615ZM247.351 55.4521L249.731 55.3887C249.731 57.695 249.52 59.8215 249.096 61.7681C248.673 63.7147 248.017 65.4074 247.129 66.8462C246.24 68.285 245.108 69.4064 243.733 70.2104C242.379 70.9933 240.77 71.3848 238.909 71.3848C237.491 71.3848 236.2 71.152 235.036 70.6865C233.873 70.1999 232.868 69.4487 232.021 68.4331C231.175 67.3963 230.519 66.0739 230.054 64.4658C229.588 62.8366 229.355 60.89 229.355 58.626V36.4092H237.512V58.6895C237.512 59.7474 237.597 60.6572 237.766 61.4189C237.956 62.1595 238.221 62.7625 238.559 63.228C238.898 63.6724 239.289 63.9897 239.734 64.1802C240.178 64.3706 240.665 64.4658 241.194 64.4658C242.738 64.4658 243.955 64.0744 244.844 63.2915C245.753 62.5086 246.399 61.4401 246.78 60.0859C247.16 58.7106 247.351 57.166 247.351 55.4521Z" fill="white" class="color-primary"/>
<path d="M214.28 63.3232V46.8193C214.28 45.6979 214.131 44.8092 213.835 44.1533C213.56 43.4974 213.148 43.0213 212.597 42.7251C212.047 42.4077 211.37 42.249 210.566 42.249C209.699 42.249 208.969 42.4289 208.376 42.7886C207.784 43.1271 207.339 43.6243 207.043 44.2803C206.768 44.915 206.631 45.6662 206.631 46.5337H198.474C198.474 45.0949 198.76 43.7301 199.331 42.4395C199.902 41.1488 200.727 40.0062 201.806 39.0117C202.886 37.9961 204.187 37.2026 205.71 36.6313C207.234 36.0601 208.937 35.7744 210.82 35.7744C213.063 35.7744 215.052 36.1553 216.787 36.917C218.543 37.6576 219.918 38.853 220.913 40.5034C221.929 42.1326 222.436 44.2697 222.436 46.9146V62.5933C222.436 64.3494 222.532 65.8411 222.722 67.0684C222.934 68.2956 223.24 69.3429 223.642 70.2104V70.75H215.39C215.031 69.8613 214.756 68.7399 214.565 67.3857C214.375 66.0104 214.28 64.6562 214.28 63.3232ZM215.327 49.8027L215.359 54.8809H211.931C210.979 54.8809 210.132 55.0184 209.392 55.2935C208.673 55.5685 208.059 55.96 207.551 56.4678C207.043 56.9756 206.662 57.5786 206.409 58.2769C206.155 58.9751 206.028 59.7368 206.028 60.562C206.028 61.5142 206.165 62.3076 206.44 62.9424C206.715 63.556 207.117 64.0215 207.646 64.3389C208.175 64.6351 208.821 64.7832 209.582 64.7832C210.661 64.7832 211.592 64.5505 212.375 64.085C213.179 63.6195 213.782 63.0693 214.184 62.4346C214.608 61.7786 214.766 61.165 214.66 60.5938L216.501 63.8945C216.29 64.6774 215.962 65.5026 215.517 66.3701C215.073 67.2376 214.502 68.0522 213.804 68.814C213.126 69.5757 212.291 70.1999 211.296 70.6865C210.323 71.152 209.17 71.3848 207.837 71.3848C205.954 71.3848 204.25 70.9722 202.727 70.147C201.225 69.3218 200.04 68.158 199.172 66.6558C198.305 65.1323 197.871 63.3127 197.871 61.1968C197.871 59.4618 198.157 57.896 198.728 56.4995C199.299 55.103 200.135 53.9076 201.235 52.9131C202.357 51.9186 203.774 51.1569 205.488 50.6279C207.202 50.0778 209.212 49.8027 211.518 49.8027H215.327Z" fill="white" class="color-primary"/>
<path d="M158.515 43.4551V70.75H150.359V36.4092H157.976L158.515 43.4551ZM157.278 52.3735L154.77 52.4053C154.749 50.0143 154.971 47.8032 155.437 45.772C155.902 43.7407 156.611 41.9845 157.563 40.5034C158.515 39.0011 159.721 37.8374 161.181 37.0122C162.641 36.187 164.334 35.7744 166.26 35.7744C167.508 35.7744 168.672 36.0072 169.751 36.4727C170.83 36.917 171.761 37.6258 172.544 38.5991C173.348 39.5513 173.961 40.7996 174.385 42.3442C174.829 43.8677 175.051 45.6979 175.051 47.835V70.75H166.926V48.7554C166.926 47.1685 166.757 45.9412 166.418 45.0737C166.101 44.1851 165.625 43.5609 164.99 43.2012C164.376 42.8203 163.615 42.6299 162.705 42.6299C161.753 42.6299 160.917 42.8838 160.198 43.3916C159.499 43.8783 158.939 44.5765 158.515 45.4863C158.092 46.375 157.775 47.4118 157.563 48.5967C157.352 49.7604 157.256 51.0194 157.278 52.3735ZM174.416 50.9453L171.084 51.5483C171.041 49.369 171.242 47.3271 171.687 45.4229C172.152 43.4974 172.851 41.8153 173.782 40.3765C174.713 38.9377 175.887 37.8162 177.305 37.0122C178.722 36.187 180.373 35.7744 182.256 35.7744C183.673 35.7744 184.953 36.0072 186.096 36.4727C187.26 36.9382 188.254 37.6893 189.079 38.7261C189.905 39.7417 190.529 41.0747 190.952 42.7251C191.396 44.3543 191.618 46.3433 191.618 48.6919V70.75H183.462V48.6919C183.462 47.0627 183.292 45.8143 182.954 44.9468C182.615 44.0581 182.139 43.4551 181.526 43.1377C180.912 42.7992 180.161 42.6299 179.272 42.6299C178.468 42.6299 177.759 42.8521 177.146 43.2964C176.553 43.7196 176.046 44.312 175.622 45.0737C175.22 45.8354 174.914 46.7135 174.702 47.708C174.512 48.7025 174.416 49.7816 174.416 50.9453Z" fill="white" class="color-primary"/>
<defs>
<linearGradient id="paint0_linear_7_138" x1="80" y1="35" x2="44" y2="71" gradientUnits="userSpaceOnUse">
<stop stop-color="#669CFF"/>
<stop offset="1" stop-color="#0059FF"/>
</linearGradient>
<linearGradient id="paint1_linear_7_138" x1="564.4" y1="71.9792" x2="670.062" y2="15.7459" gradientUnits="userSpaceOnUse">
<stop stop-color="#669CFF"/>
<stop offset="1" stop-color="#0059FF"/>
</linearGradient>
<linearGradient id="paint2_linear_7_138" x1="564.4" y1="71.9792" x2="670.062" y2="15.7459" gradientUnits="userSpaceOnUse">
<stop stop-color="#669CFF"/>
<stop offset="1" stop-color="#0059FF"/>
</linearGradient>
<linearGradient id="paint3_linear_7_138" x1="564.4" y1="71.9792" x2="670.062" y2="15.7459" gradientUnits="userSpaceOnUse">
<stop stop-color="#669CFF"/>
<stop offset="1" stop-color="#0059FF"/>
</linearGradient>
<linearGradient id="paint4_linear_7_138" x1="564.4" y1="71.9792" x2="670.062" y2="15.7459" gradientUnits="userSpaceOnUse">
<stop stop-color="#669CFF"/>
<stop offset="1" stop-color="#0059FF"/>
</linearGradient>
</defs>
</svg>
